<?xml version="1.0" encoding="UTF-8"?>
<svg id="OBJECTS" xmlns="http://www.w3.org/2000/svg" xmlns:xlink="http://www.w3.org/1999/xlink" viewBox="0 0 495.82 539.56">
  <defs>
    <style>
      .cls-1 {
        fill: #ea3f3c;
      }

      .cls-2 {
        fill: #111;
      }

      .cls-3 {
        fill: url(#radial-gradient);
      }

      .cls-4 {
        letter-spacing: .11em;
      }

      .cls-5 {
        font-family: Bahnschrift-LightCondensed, Bahnschrift;
        font-size: 32.14px;
        font-variation-settings: 'wght' 300, 'wdth' 75;
        font-weight: 300;
      }

      .cls-6 {
        font-family: DancingScript-Bold, 'Dancing Script';
        font-size: 145.5px;
        font-variation-settings: 'wght' 700;
        font-weight: 700;
      }

      .cls-7 {
        letter-spacing: .11em;
      }

      .cls-8 {
        letter-spacing: .1em;
      }
    </style>
    <radialGradient id="radial-gradient" cx="193.19" cy="273.82" fx="193.19" fy="273.82" r="49" gradientUnits="userSpaceOnUse">
      <stop offset="0" stop-color="#dca336"/>
      <stop offset="1" stop-color="#dca336"/>
    </radialGradient>
  </defs>
  <g>
    <path class="cls-2" d="m320.36,240.86c-18.53-20.99-1.36-34.89,2.73-61.87,3.49-23.04-6.53-39.32-16.83-52.92,3.92-3.77,4.42-11.08.27-14.85,5.39-4.75,5.98-13.97,1.24-19.36,4.95-1.4,4.59-8.61,2.51-13.32-5.17-11.69-14.32-21.57-25.59-27.61-1.77-7.26-8.17-13.17-15.55-14.35-5.05-6.85-15.15-9.39-22.84-5.74-.24-3.84-3.84-6.5-7.22-8.33-10.97-5.96-23.38-9.22-35.86-9.42-3.07-5.57-10.01-8.71-16.22-7.32-5.09-6.72-16.54-7.11-22.07-.76,1.33-3.82-4.74-5.48-8.74-4.89-17.26,2.56-34.51,5.13-51.77,7.69-5.65.84-12.92,3.6-12.34,9.29-7.8-2.18-16.85,3.54-18.24,11.52-14.37,2.48-27.38,11.94-34.17,24.85-7.51-1.16-15,6.42-13.75,13.91-7.18-1.74-14.22,7.48-10.65,13.95-6.65,3.69-10.21,12.19-8.18,19.53-4.75-.66-6.45,6.06-6.22,10.85.44,9.01.87,18.02,1.31,27.04-4.1,9.67-2.31,21.58,4.46,29.61-4.64,9.57-.04,22.5,9.6,27-3.97,8.97,2.17,20.85,11.78,22.8-2.74,4.67-.98,11.42,3.69,14.16,1.98,1.16,4.3,1.64,6.24,2.84,3.68,2.28,5.35,6.66,7.83,10.22,2.48,3.55,7.19,6.58,10.95,4.42-1.96,3.37.87,7.9,4.57,9.14,3.7,1.25,7.73.22,11.5-.8-2.19,4.96,5.53,8.05,10.94,8,10.24-.1,20.48-.2,30.71-.3,2.07,4.21,7.21,6.17,11.89,5.87,1.8-.11,3.47-.77,5.11-1.42,8.46,31.46-.8,57.8-.8,57.8,32.43,34.61,127.82,79.58,127.82,79.58-15.54-12.81-30.53-26.98-30.53-57.51s8.99-37.34,8.99-37.34c0,0,4.91,1.91,17.17,12.26,12.26,10.36,26.98,11.17,35.43,10.36,8.45-.82,12.26-8.99,13.63-15.54s7.09-7.63,7.09-7.63c0,0,.82,2.45,6.27,1.64,5.45-.82,2.18-14.99,2.18-14.99,9.54-2.45,10.9-6,12.26-11.17,1.36-5.18-3.27-6.54-3.27-6.54l-2.18-8.45c13.9-7.09,13.35-10.9-5.18-31.89Z"/>
    <g>
      <path class="cls-1" d="m173.39,217.03s1.9,15.81,19.14,16.41c0,0-19.14,5.59-19.14-16.41Z"/>
      <path class="cls-3" d="m193.19,224.82c-1.2,0-2.38.06-3.56.14-.03.12-.06.24-.09.37,1.2-.09,2.42-.15,3.64-.15,25.89,0,46.88,20.99,46.88,46.88s-20.99,46.88-46.88,46.88-46.88-20.99-46.88-46.88c0-19.76,12.23-36.65,29.53-43.55-.07-.15-.14-.29-.2-.43-18.39,7.06-31.45,24.87-31.45,45.75,0,27.06,21.94,49,49,49s49-21.94,49-49-21.94-49-49-49Z"/>
    </g>
  </g>
  <text class="cls-6" transform="translate(25.59 494.73) rotate(.41)"><tspan x="0" y="0">Sparkles</tspan></text>
  <text class="cls-5" transform="translate(117.14 530.87)"><tspan class="cls-7" x="0" y="0">BY </tspan><tspan class="cls-8" x="41.66" y="0">O</tspan><tspan class="cls-7" x="59.29" y="0">F</tspan><tspan class="cls-8" x="74.61" y="0">U</tspan><tspan class="cls-4" x="90.98" y="0">RE</tspan></text>
</svg>